<svg width="68" height="45" viewBox="0 0 68 45" fill="none" xmlns="http://www.w3.org/2000/svg">
<path d="M5.28776 44.7752C6.897 45.2019 8.76033 45.0312 10.7084 44.1778C14.0115 42.8124 17.8229 39.9109 21.5496 36.412C24.1752 33.8519 29.0876 32.5718 34 32.5718C38.9124 32.5718 43.8248 33.8519 46.4504 36.412C50.1771 39.9109 53.9885 42.8124 57.2916 44.1778C59.2397 44.9458 61.103 45.2019 62.7122 44.7752C64.4062 44.2631 65.846 43.0684 66.7777 40.8496C67.7094 38.7161 68.1328 35.5586 67.9635 31.121C67.7941 27.1955 67.1165 22.8432 66.1001 18.747C65.0838 14.8214 63.8133 11.1519 62.2888 8.33574C56.36 -2.16086 49.923 -0.539438 42.2156 1.50868C39.7594 2.10605 37.1338 2.78875 34.4235 3.04477H33.5765C30.8662 2.78875 28.2406 2.10605 25.7844 1.50868C18.077 -0.4541 11.64 -2.16086 5.71124 8.42108C4.1867 11.2372 2.83155 14.9068 1.89988 18.8323C0.883518 22.9286 0.205943 27.2808 0.0365495 31.2064C-0.132844 35.5586 0.29064 38.7161 1.22231 40.9349C2.15397 42.9831 3.50912 44.2631 5.28776 44.7752ZM3.17033 31.2917C3.33973 27.6222 3.93261 23.4406 4.94897 19.515C5.88063 15.8455 7.06639 12.432 8.50624 9.87183C13.1646 1.42334 18.5852 2.78875 25.0221 4.49552C27.6477 5.17822 30.358 5.86093 33.3224 6.11694C33.4071 6.11694 33.4071 6.11694 33.4918 6.11694H34.4235C34.5082 6.11694 34.5082 6.11694 34.5929 6.11694C37.642 5.86093 40.3523 5.17822 42.9779 4.49552C49.4148 2.87409 54.8354 1.42334 59.4938 9.87183C60.9336 12.432 62.1194 15.7602 63.051 19.515C63.9827 23.4406 64.6603 27.5368 64.8297 31.2917C64.9991 35.2173 64.6603 37.8628 63.898 39.6549C63.3898 40.8496 62.7122 41.5323 61.8653 41.7883C60.9336 42.0443 59.7478 41.8737 58.3927 41.3616C55.4283 40.1669 51.9557 37.5214 48.5679 34.2786C45.3494 31.0357 39.6747 29.4143 34 29.4143C28.3253 29.4143 22.6506 31.0357 19.3474 34.1079C15.8749 37.3507 12.4023 40.0816 9.5226 41.191C8.16745 41.703 6.98169 41.959 6.05003 41.6176C5.20306 41.3616 4.52548 40.6789 4.0173 39.4842C3.33973 37.8628 3.00094 35.2173 3.17033 31.2917Z" fill="#7DCEF1"/>
<path d="M13.3335 22.9281C13.4182 24.1228 13.9264 25.2322 14.7733 26.0003C15.705 26.939 16.8908 27.451 18.2459 27.451C19.6011 27.451 20.8715 26.8537 21.7185 26.0003C22.4807 25.1469 23.0736 24.1228 23.1583 22.9281C24.3441 22.8428 25.4451 22.3307 26.2074 21.4773C27.1391 20.5386 27.6473 19.3439 27.6473 17.9785C27.6473 16.6131 27.0544 15.333 26.2074 14.4796C25.3604 13.7116 24.3441 13.1142 23.1583 13.0289C23.0736 11.9195 22.5654 10.8101 21.8032 10.042L21.7185 9.95669C20.7868 9.01797 19.6011 8.50595 18.2459 8.50595C16.8908 8.50595 15.6203 9.10331 14.7733 9.95669C14.0111 10.7247 13.4182 11.8341 13.3335 13.0289C12.1477 13.1142 11.1314 13.6262 10.2844 14.3943L10.1997 14.4796C9.26803 15.4183 8.75985 16.6131 8.75985 17.9785C8.75985 19.3439 9.35273 20.624 10.1997 21.4773C11.0467 22.3307 12.063 22.8428 13.3335 22.9281ZM11.8936 17.9785C11.8936 17.4665 12.063 17.0398 12.4018 16.6984C12.4018 16.6984 12.4018 16.6984 12.4865 16.6131C12.8253 16.3571 13.2488 16.1864 13.6723 16.1864H14.858C15.705 16.1864 16.4673 15.5037 16.4673 14.565V13.3702C16.4673 12.8582 16.6367 12.4315 16.9754 12.0901C17.3142 11.7488 17.7377 11.5781 18.2459 11.5781C18.7541 11.5781 19.1776 11.7488 19.5164 12.0901C19.5164 12.0901 19.5164 12.0901 19.6011 12.1755C19.8551 12.5168 20.0245 12.9435 20.0245 13.3702V14.565C20.0245 15.4183 20.7021 16.1864 21.6338 16.1864H22.8195C23.3277 16.1864 23.7512 16.3571 24.09 16.6984C24.4288 17.0398 24.5982 17.4665 24.5982 17.9785C24.5982 18.4905 24.4288 18.9172 24.09 19.2586C23.7512 19.5999 23.3277 19.7706 22.8195 19.7706H21.6338C20.7868 19.7706 20.0245 20.4533 20.0245 21.392V22.5014C20.0245 23.0134 19.8551 23.4401 19.5164 23.7815C19.1776 24.1228 18.7541 24.2935 18.2459 24.2935C17.7377 24.2935 17.3142 24.1228 16.9754 23.7815C16.6367 23.4401 16.4673 23.0134 16.4673 22.5014V21.3067C16.4673 20.4533 15.7897 19.6852 14.858 19.6852H13.6723C13.1641 19.6852 12.7406 19.5146 12.4018 19.1732C12.1477 18.9172 11.8936 18.4905 11.8936 17.9785Z" fill="#7DCEF1"/>
<path d="M48.7366 14.9063C50.3738 14.9063 51.701 13.5691 51.701 11.9195C51.701 10.2699 50.3738 8.93264 48.7366 8.93264C47.0994 8.93264 45.7722 10.2699 45.7722 11.9195C45.7722 13.5691 47.0994 14.9063 48.7366 14.9063Z" fill="#7DCEF1"/>
<path d="M48.7366 27.0244C50.3738 27.0244 51.701 25.6871 51.701 24.0375C51.701 22.388 50.3738 21.0507 48.7366 21.0507C47.0994 21.0507 45.7722 22.388 45.7722 24.0375C45.7722 25.6871 47.0994 27.0244 48.7366 27.0244Z" fill="#7DCEF1"/>
<path d="M42.7233 20.9653C44.3605 20.9653 45.6877 19.6281 45.6877 17.9785C45.6877 16.3289 44.3605 14.9916 42.7233 14.9916C41.0862 14.9916 39.759 16.3289 39.759 17.9785C39.759 19.6281 41.0862 20.9653 42.7233 20.9653Z" fill="#7DCEF1"/>
<path d="M54.7501 20.9653C56.3873 20.9653 57.7145 19.6281 57.7145 17.9785C57.7145 16.3289 56.3873 14.9916 54.7501 14.9916C53.113 14.9916 51.7858 16.3289 51.7858 17.9785C51.7858 19.6281 53.113 20.9653 54.7501 20.9653Z" fill="#7DCEF1"/>
</svg>
