<svg width="104" height="33" viewBox="0 0 104 33" fill="none" xmlns="http://www.w3.org/2000/svg">
<path d="M0 32.0337L2.77889 18.2087H2.98731L8.05878 26.9622L12.8524 18.2087H13.0608L15.8397 32.0337H12.7829L11.6713 25.9201L8.05878 32.52H7.85036L3.95992 25.7812L2.84836 32.0337H0Z" fill="#002749"/>
<path d="M18.688 32.0337V18.6255H21.8838V32.0337H18.688Z" fill="#002749"/>
<path d="M25.9132 32.0337V18.2087H26.191L34.5277 26.059V18.6255H37.4456V32.52H37.1677L28.831 24.7391V32.0337H25.9132Z" fill="#002749"/>
<path d="M41.4055 32.0337V18.6255H44.9486C47.4496 18.6255 49.3948 19.2508 50.8537 20.4318C52.2431 21.6128 53.0073 23.2802 53.0073 25.3643C53.0073 26.6148 52.7295 27.7264 52.1737 28.699C51.6179 29.6716 50.7842 30.4358 49.6727 31.061C49.0474 31.4084 48.3527 31.6863 47.658 31.8252C46.9633 31.9642 46.0601 32.0337 44.9486 32.0337H41.4055ZM44.6012 29.1853H45.2959C46.6854 29.1853 47.7969 28.8379 48.5611 28.1432C49.3253 27.4485 49.7421 26.5453 49.7421 25.3643C49.7421 24.1833 49.3253 23.2107 48.5611 22.516C47.7969 21.8212 46.6854 21.4739 45.2959 21.4739H44.6012V29.1853Z" fill="#002749"/>
<path d="M67.4576 24.6001V31.1305C66.5544 31.5473 65.6513 31.8947 64.8176 32.1726C63.984 32.381 63.1503 32.52 62.3166 32.52C60.3019 32.52 58.5651 31.8252 57.2452 30.5053C55.9252 29.1853 55.2304 27.4485 55.2304 25.4338C55.2304 23.3496 55.9252 21.6823 57.2452 20.2928C58.6346 18.9034 60.3714 18.2782 62.4556 18.2782C63.2198 18.2782 63.984 18.4171 64.6787 18.6255C65.3734 18.8339 66.0681 19.1813 66.7628 19.5981L66.4155 22.9328C65.7902 22.3075 65.165 21.8212 64.5397 21.5433C63.9145 21.2655 63.2892 21.1265 62.5945 21.1265C61.4135 21.1265 60.3714 21.5433 59.6072 22.3075C58.843 23.1412 58.4262 24.1138 58.4262 25.2948C58.4262 26.5453 58.7735 27.5874 59.5377 28.4211C60.3019 29.2548 61.2745 29.6021 62.4556 29.6021C62.7335 29.6021 63.0113 29.6021 63.2892 29.5327C63.5671 29.4632 63.845 29.3937 64.1924 29.3242V27.379H61.6219V24.6696H67.4576V24.6001Z" fill="#002749"/>
<path d="M68.847 32.0337L75.6553 18.2087H75.8637L82.5331 32.0337H79.2679L78.4342 30.0884H73.0154L72.1122 32.0337H68.847ZM73.9185 27.7958H77.4616L75.7248 23.6275L73.9185 27.7958Z" fill="#002749"/>
<path d="M85.7982 21.4739H81.5604V18.695H93.3013V21.4739H88.994V32.1031H85.7982V21.4739Z" fill="#002749"/>
<path d="M95.6633 18.6255H103.931V21.4044H98.7896V23.8359H103.166V26.6148H98.7896V29.2548H104V32.1031H95.6633V18.6255Z" fill="#002749"/>
<path d="M59.8158 0.284607C58.7737 0.284607 58.0095 0.423551 57.1064 0.840384C56.6896 0.979329 56.1338 1.46563 55.578 1.88247C54.6054 2.78561 53.9801 4.73083 52.1044 4.73083C50.8539 4.73083 50.5065 3.75822 49.8118 3.34138C49.0476 2.78561 48.075 2.43825 47.0329 2.43825C45.574 2.43825 44.3235 3.13297 43.4898 4.17505C42.8646 4.86977 42.4478 5.77291 42.4478 6.815C42.4478 7.16236 42.4478 7.50972 42.5867 7.85708C42.9341 10.0107 44.8098 11.6781 47.1024 11.6781C48.2139 11.6781 49.1866 11.2612 50.0202 10.636C50.6455 10.2191 50.9928 9.316 52.1739 9.316C53.9801 9.316 54.258 11.1223 55.717 12.3728C56.4117 12.998 57.5927 13.5538 59.26 13.6927C59.5379 13.6927 59.6769 13.6927 59.7463 13.6927C63.4284 13.7622 66.5546 10.8444 66.5546 7.09289C66.5546 3.41086 64.1926 0.840384 60.9968 0.354078C60.6495 0.284606 60.2326 0.284607 59.8158 0.284607Z" fill="#92D2F4"/>
</svg>
