<svg width="66" height="66" viewBox="0 0 66 66" fill="none" xmlns="http://www.w3.org/2000/svg">
<path d="M52.8054 41.8438C50.3917 41.8438 48.4072 39.8577 48.4072 37.4421C48.4072 35.0264 50.3917 33.0403 52.8054 33.0403C55.219 33.0403 57.2036 35.0264 57.2036 37.4421C57.2036 39.8577 55.219 41.8438 52.8054 41.8438ZM52.8054 35.2412C51.5985 35.2412 50.6063 36.2342 50.6063 37.4421C50.6063 38.6499 51.5985 39.6429 52.8054 39.6429C54.0122 39.6429 55.0045 38.6499 55.0045 37.4421C55.0045 36.2074 54.0122 35.2412 52.8054 35.2412Z" fill="#7DCEF1"/>
<path d="M52.8054 28.6116C52.6176 28.6116 52.4299 28.6116 52.269 28.6116L46.6103 21.0695C48.9167 18.976 50.4185 16.0236 50.5794 12.7222L57.4718 16.0504C57.284 16.5336 57.2036 17.0435 57.2036 17.5803C57.2036 20.0228 59.1881 21.9821 61.6018 21.9821C64.0154 21.9821 66 19.9959 66 17.5803C66 15.1647 64.0154 13.1785 61.6018 13.1785C60.529 13.1785 59.5368 13.5811 58.759 14.2253L50.4722 10.2261C49.5603 4.45547 44.5453 0 38.5112 0C32.0211 0 26.6843 5.15331 26.4161 11.595L19.8992 17.1777C18.0488 15.621 15.7424 14.6011 13.1946 14.3595V8.66938C15.0987 8.18625 16.4933 6.44164 16.4933 4.40179C16.4933 1.98617 14.5087 0 12.0951 0C9.65461 0 7.69687 1.98617 7.69687 4.40179C7.69687 6.44164 9.09143 8.18625 10.9955 8.66938V14.3595C4.85412 14.9231 0 20.1301 0 26.4107C0 30.8662 2.44047 34.7849 6.03413 36.8784C6.14141 36.9321 6.2755 37.0126 6.38277 37.0663C6.49004 37.12 6.62414 37.2005 6.73141 37.2542C6.83868 37.3078 6.97277 37.3615 7.08005 37.4152C7.13369 37.4421 7.18732 37.4689 7.21414 37.4689C7.40187 37.5494 7.61642 37.6299 7.83096 37.7105C7.8846 37.7373 7.96505 37.7641 8.01869 37.791H8.04551C8.09915 37.8178 8.12596 37.8178 8.1796 37.8447C8.20642 37.8715 8.26006 37.8715 8.28687 37.8715C8.34051 37.8983 8.39415 37.8983 8.44779 37.9252C8.52824 37.952 8.6087 37.9789 8.71597 38.0057C8.76961 38.0325 8.85006 38.0325 8.9037 38.0594C9.09143 38.1131 9.30597 38.1667 9.52052 38.2204C9.60098 38.2473 9.65461 38.2473 9.73507 38.2741C9.76188 38.2741 9.81552 38.3009 9.84234 38.3009C9.89598 38.3009 9.97643 38.3278 10.0301 38.3278C10.1642 38.3546 10.2983 38.3815 10.4323 38.3815C10.5128 38.3815 10.5664 38.4083 10.6469 38.4083C10.7273 38.4083 10.781 38.4351 10.8614 38.4351C10.9955 38.4351 11.1028 38.462 11.2369 38.462H11.2637C11.3442 38.462 11.4246 38.462 11.5051 38.462C11.5855 38.462 11.6928 38.462 11.7733 38.462C11.8805 38.462 11.961 38.462 12.0683 38.462C12.1755 38.462 12.256 38.462 12.3633 38.462C12.4437 38.462 12.551 38.462 12.6314 38.462C12.7119 38.462 12.7924 38.462 12.8728 38.462H12.8996C13.0337 38.462 13.141 38.4351 13.2751 38.4351C13.3555 38.4351 13.4092 38.4083 13.4896 38.4083C13.5433 38.4083 13.6237 38.3815 13.6774 38.3815C13.8383 38.3546 13.9992 38.3278 14.1601 38.3009C14.2406 38.3009 14.321 38.2741 14.3746 38.2473C14.5892 38.1936 14.8037 38.1667 15.0183 38.1131C15.206 38.0594 15.3937 38.0057 15.5815 37.952C15.6619 37.9252 15.7424 37.8983 15.8228 37.8715C15.8497 37.8715 15.8765 37.8447 15.9301 37.8447C16.0106 37.8178 16.1178 37.791 16.1983 37.7641C16.2787 37.7373 16.3324 37.7105 16.4128 37.6836C16.4665 37.6568 16.5201 37.6568 16.5737 37.6299C16.681 37.5763 16.7883 37.5494 16.8956 37.4957C16.8956 37.4957 16.9224 37.4957 16.9224 37.4689C17.0297 37.4152 17.1101 37.3884 17.1906 37.3347C17.2978 37.281 17.4051 37.2273 17.5124 37.1736C17.5928 37.1468 17.6465 37.0931 17.7269 37.0663C17.8074 37.0395 17.861 36.9858 17.9415 36.9589C17.9951 36.9321 18.0756 36.8784 18.1292 36.8516C21.1597 35.107 23.3588 32.0472 24.0024 28.4774L28.937 32.3424C28.6957 32.8792 28.5884 33.4697 28.5884 34.087C28.5884 36.5295 30.5729 38.4888 32.9866 38.4888C35.4002 38.4888 37.3848 36.5026 37.3848 34.087C37.3848 31.6714 35.4002 29.6852 32.9866 29.6852C31.9675 29.6852 31.0288 30.0342 30.3048 30.5978L24.1902 25.8739C24.0561 23.1631 23.0638 20.6938 21.4547 18.7344L26.6038 14.3058C27.2475 17.8219 29.4197 20.8011 32.3966 22.5458C32.4234 22.5458 32.4234 22.5726 32.4502 22.5726C32.5307 22.6263 32.5843 22.6531 32.6648 22.7068C32.6916 22.7068 32.6916 22.7336 32.7184 22.7336C32.7452 22.7336 32.7452 22.7605 32.772 22.7605C32.7989 22.7873 32.8257 22.7873 32.8525 22.8142C32.9061 22.841 32.9866 22.8678 33.0402 22.9215C33.0402 22.9215 33.0402 22.9215 33.067 22.9215C33.1475 22.9484 33.2011 23.002 33.2816 23.0289C33.3352 23.0557 33.362 23.0826 33.4157 23.0826C33.4157 23.0826 33.4157 23.0826 33.4425 23.0826C33.523 23.1094 33.6034 23.1631 33.6839 23.1899H33.7375C33.818 23.2168 33.8984 23.2436 33.9789 23.2973C34.2202 23.4046 34.4616 23.4852 34.7298 23.5657C34.8371 23.5925 34.9175 23.6194 35.0248 23.673C35.1052 23.6999 35.1589 23.7267 35.2393 23.7267C35.293 23.7536 35.3734 23.7536 35.4271 23.7804C35.4807 23.8072 35.5343 23.8072 35.588 23.8341C35.8025 23.8878 35.9902 23.9414 36.2048 23.9683C36.2852 23.9951 36.3657 23.9951 36.4462 24.022C36.473 24.022 36.473 24.022 36.4998 24.022C36.5266 24.022 36.5534 24.022 36.5802 24.0488C36.8484 24.1025 37.0898 24.1293 37.358 24.1562C37.4921 24.1562 37.5993 24.183 37.7334 24.183H37.7603C37.8407 24.183 37.9212 24.183 38.0016 24.183C38.0821 24.183 38.1894 24.183 38.2698 24.183C38.3771 24.183 38.4575 24.183 38.5648 24.183C38.6721 24.183 38.7525 24.183 38.8598 24.183C38.9403 24.183 39.0475 24.183 39.128 24.183C39.2084 24.183 39.2889 24.183 39.3694 24.183H39.3962C39.5303 24.183 39.6375 24.1562 39.7716 24.1562C39.8521 24.1562 39.9057 24.1293 39.9862 24.1293C40.0666 24.1293 40.1739 24.1025 40.2544 24.1025C40.2812 24.1025 40.3348 24.1025 40.3616 24.0756C41.8635 23.8609 43.3117 23.351 44.6258 22.5726C44.733 22.5189 44.8135 22.4384 44.8939 22.3579L44.9208 22.4116L49.8553 29.0142C44.6258 30.3562 40.7639 35.107 40.7639 40.7434C40.7639 42.1122 41.0053 43.4274 41.4076 44.6621L36.9825 47.9902C34.8907 44.34 30.9484 41.8438 26.4697 41.8438C20.1674 41.8438 14.9646 46.7019 14.4283 52.8483H8.66233C8.1796 50.9427 6.43641 49.547 4.39821 49.547C1.98456 49.547 0 51.5331 0 53.9488C0 56.3912 1.98456 58.3506 4.39821 58.3506C6.43641 58.3506 8.1796 56.9549 8.66233 55.0492H14.3478C14.7233 59.0484 17.0297 62.5108 20.3283 64.4164C20.4356 64.497 20.5697 64.5506 20.677 64.6043C20.7306 64.6311 20.7842 64.658 20.8379 64.6848C21.267 64.8996 21.6692 65.0874 22.1252 65.2485C22.2056 65.2753 22.2592 65.3022 22.3397 65.329H22.3665C22.4202 65.3558 22.4738 65.3558 22.5274 65.3827C22.7688 65.4632 23.0102 65.5437 23.2515 65.5974C23.3856 65.6242 23.4929 65.6511 23.627 65.7048C23.7343 65.7316 23.8683 65.7584 23.9756 65.7853C24.0293 65.8121 24.1097 65.8121 24.1902 65.8121C24.2706 65.839 24.3511 65.839 24.4047 65.839C24.4583 65.839 24.512 65.8658 24.5656 65.8658C24.5924 65.8658 24.6193 65.8658 24.6461 65.8658C24.7534 65.8926 24.8606 65.8926 24.9679 65.9195C25.0215 65.9195 25.102 65.9463 25.1556 65.9463C25.2897 65.9463 25.397 65.9732 25.5311 65.9732C25.6384 65.9732 25.7456 65.9732 25.8529 66C25.9334 66 25.987 66 26.0674 66C26.1747 66 26.2552 66 26.3625 66C26.4697 66 26.5502 66 26.6575 66C26.7379 66 26.7915 66 26.872 66C26.9793 66 27.0865 66 27.1938 65.9732C27.3279 65.9732 27.4352 65.9463 27.5693 65.9463C27.6229 65.9463 27.7034 65.9195 27.757 65.9195C27.8911 65.8926 27.9984 65.8926 28.1325 65.8658C28.1861 65.8658 28.2129 65.8658 28.2666 65.839C28.3202 65.839 28.347 65.8121 28.4006 65.8121C28.5079 65.7853 28.642 65.7584 28.7493 65.7584C28.8834 65.7316 29.0175 65.7048 29.1247 65.6779C29.1784 65.6511 29.2588 65.6511 29.3125 65.6242C29.3929 65.5974 29.4466 65.5974 29.527 65.5706C29.5807 65.5437 29.6611 65.5437 29.7147 65.5169C33.9252 64.3091 37.1971 60.8735 38.1894 56.5791L45.3767 60.0415C45.1889 60.5246 45.1085 61.0346 45.1085 61.5714C45.1085 63.987 47.0931 65.9732 49.5067 65.9732C51.9204 65.9732 53.9049 63.987 53.9049 61.5714C53.9049 59.1289 51.9204 57.1696 49.5067 57.1696C48.434 57.1696 47.4417 57.5722 46.664 58.2164L38.5112 54.2708C38.5112 54.1366 38.5112 54.0024 38.5112 53.8682C38.5112 52.4994 38.2698 51.1842 37.8675 49.9496L42.2926 46.6214C44.1698 49.8959 47.5221 52.231 51.4376 52.6873C51.4913 52.6873 51.5717 52.7141 51.6254 52.7141C51.7594 52.7141 51.8667 52.741 52.0008 52.741C52.0276 52.741 52.0276 52.741 52.0544 52.741C52.1617 52.741 52.2422 52.741 52.3494 52.7678C52.4031 52.7678 52.4835 52.7678 52.5372 52.7678C52.6444 52.7678 52.7249 52.7678 52.8322 52.7678C52.9395 52.7678 53.0199 52.7678 53.1272 52.7678C53.1808 52.7678 53.2613 52.7678 53.3149 52.7678C53.4222 52.7678 53.5026 52.7678 53.6099 52.741C53.6367 52.741 53.6367 52.741 53.6636 52.741C53.7976 52.741 53.9049 52.7141 54.039 52.7141C54.0926 52.7141 54.1731 52.7141 54.2267 52.6873C54.3072 52.6873 54.3876 52.6604 54.4681 52.6604C54.5217 52.6604 54.6022 52.6336 54.6558 52.6336C54.7095 52.6336 54.7899 52.6068 54.8436 52.6068C55.0313 52.5799 55.2458 52.5262 55.4336 52.4994C55.4872 52.4726 55.5676 52.4725 55.6213 52.4457C55.6481 52.4457 55.6749 52.4457 55.7017 52.4189C55.7286 52.4189 55.7286 52.4189 55.7554 52.4189C55.7554 52.4189 55.7554 52.4189 55.7822 52.4189H55.809C55.8627 52.392 55.9163 52.392 55.9699 52.3652L56.1308 52.3115C56.1577 52.3115 56.2113 52.2847 56.2381 52.2847C56.3186 52.2578 56.3722 52.231 56.4527 52.231C56.4795 52.231 56.5063 52.2042 56.5331 52.2042C56.6136 52.1773 56.694 52.1505 56.8013 52.1236H56.8281C56.8818 52.0968 56.9622 52.0699 57.0158 52.0431C57.0695 52.0163 57.1499 51.9894 57.2036 51.9626C57.2572 51.9357 57.284 51.9357 57.3377 51.9089C57.3645 51.9089 57.3645 51.8821 57.3913 51.8821H57.4181C57.4181 51.8821 57.4449 51.8821 57.4449 51.8552C57.4718 51.8552 57.4986 51.8284 57.4986 51.8284C57.5254 51.8284 57.5254 51.8015 57.5522 51.8015C57.6059 51.7747 57.6327 51.7747 57.6863 51.7479C57.7131 51.7479 57.7399 51.721 57.7399 51.721C57.7668 51.721 57.7936 51.6942 57.8204 51.6942C57.8472 51.6942 57.874 51.6673 57.9008 51.6673C57.9277 51.6405 57.9813 51.6405 58.0081 51.6137C58.0349 51.6137 58.0618 51.5868 58.0618 51.5868C58.0886 51.5868 58.1154 51.56 58.1422 51.56C58.1959 51.5331 58.2227 51.5063 58.2763 51.4795C58.2763 51.4795 58.3031 51.4795 58.3031 51.4526C58.3836 51.3989 58.464 51.3721 58.5445 51.3184C58.6249 51.2647 58.7054 51.2379 58.7859 51.1842C58.7859 51.1842 58.8127 51.1842 58.8127 51.1574C62.4332 49.0639 64.8468 45.1452 64.8468 40.6897C64.9004 34.0602 59.4831 28.6116 52.8054 28.6116ZM59.8586 16.2651C60.2609 15.7283 60.9045 15.4063 61.6018 15.4063C62.8086 15.4063 63.8009 16.3993 63.8009 17.6072C63.8009 18.815 62.8086 19.8081 61.6018 19.8081C60.395 19.8081 59.4027 18.815 59.4027 17.6072C59.4027 17.124 59.5636 16.6409 59.8586 16.2651ZM33.0134 31.9398C34.2202 31.9398 35.2125 32.9329 35.2125 34.1407C35.2125 35.3485 34.2202 36.3416 33.0134 36.3416C31.8066 36.3416 30.8143 35.3485 30.8143 34.1407C30.7875 32.9061 31.7798 31.9398 33.0134 31.9398ZM9.89598 4.40179C9.89598 3.19398 10.8883 2.20089 12.0951 2.20089C13.3019 2.20089 14.2942 3.19398 14.2942 4.40179C14.2942 5.6096 13.3019 6.60268 12.0951 6.60268C10.8883 6.60268 9.89598 5.6096 9.89598 4.40179ZM16.4933 35.2948C13.7578 36.6637 10.4323 36.6637 7.69687 35.2948V33.0403C7.69687 32.4229 8.23324 31.913 8.9037 31.913H15.2865C15.9569 31.913 16.4933 32.4229 16.4933 33.0403V35.2948ZM21.9911 26.3839V26.4644C21.9642 29.3632 20.7038 31.9667 18.6924 33.7918V33.0403C18.6924 31.2151 17.1638 29.7121 15.2865 29.7121H8.9037C7.02641 29.7121 5.49776 31.2151 5.49776 33.0403V33.7918C3.48639 31.9935 2.19911 29.3632 2.19911 26.4107C2.19911 20.9353 6.65095 16.5067 12.0951 16.5067C17.5392 16.5067 21.9911 20.9353 21.9911 26.3839ZM42.9094 20.989C40.1739 22.3579 36.8484 22.3579 34.113 20.989V18.7344C34.113 18.1171 34.6493 17.6072 35.3198 17.6072H41.7026C42.373 17.6072 42.9094 18.1171 42.9094 18.7344V20.989ZM45.1085 19.486V18.7344C45.1085 16.9093 43.5798 15.4063 41.7026 15.4063H35.3198C33.4425 15.4063 31.9139 16.8825 31.9139 18.7344V19.486C29.9025 17.6877 28.642 15.0573 28.6152 12.1586V12.0781C28.642 6.62952 33.067 2.20089 38.5112 2.20089C43.9821 2.20089 48.4072 6.65636 48.4072 12.1049C48.4072 15.0305 47.1199 17.6608 45.1085 19.486ZM4.39821 56.1497C3.19139 56.1497 2.19911 55.1566 2.19911 53.9488C2.19911 52.741 3.19139 51.7479 4.39821 51.7479C5.60504 51.7479 6.59732 52.741 6.59732 53.9488C6.59732 55.1566 5.60504 56.1497 4.39821 56.1497ZM30.7875 62.806C28.052 64.1749 24.7265 64.1749 21.9911 62.806V60.5514C21.9911 59.9341 22.5274 59.4242 23.1979 59.4242H29.5807C30.2511 59.4242 30.7875 59.9341 30.7875 60.5514V62.806ZM33.0134 61.3298V60.5783C33.0134 58.7532 31.4848 57.2501 29.6075 57.2501H23.1979C21.3206 57.2501 19.792 58.7532 19.792 60.5783V61.3298C17.7806 59.5047 16.4933 56.8743 16.4933 53.9488C16.4933 48.4734 20.9451 44.0447 26.3893 44.0447C30.4657 44.0447 33.9789 46.5409 35.5075 50.0838V50.1106C36.0171 51.2916 36.2852 52.6068 36.2852 53.9756C36.3121 56.8743 35.0248 59.5047 33.0134 61.3298ZM49.5067 59.451C50.7135 59.451 51.7058 60.4441 51.7058 61.6519C51.7058 62.8597 50.7135 63.8528 49.5067 63.8528C48.2999 63.8528 47.3076 62.8597 47.3076 61.6519C47.3076 60.4441 48.2999 59.451 49.5067 59.451ZM57.2036 49.6007C54.4681 50.9695 51.1426 50.9695 48.4072 49.6007V47.3461C48.4072 46.7288 48.9435 46.2188 49.614 46.2188H55.9967C56.6672 46.2188 57.2036 46.7288 57.2036 47.3461V49.6007ZM59.4027 48.1244V47.3729C59.4027 45.5478 57.874 44.0447 55.9967 44.0447H49.614C47.7367 44.0447 46.208 45.5478 46.208 47.3729V48.1244C44.1967 46.2993 42.9094 43.669 42.9094 40.7434C42.9094 35.268 47.3612 30.8394 52.8054 30.8394C58.2763 30.8394 62.7013 35.2948 62.7013 40.7434C62.7013 43.669 61.4141 46.2993 59.4027 48.1244Z" fill="#7DCEF1"/>
<path d="M38.5112 4.40179C36.0707 4.40179 34.113 6.38796 34.113 8.80358C34.113 11.2192 36.0975 13.2054 38.5112 13.2054C40.9248 13.2054 42.9094 11.2192 42.9094 8.80358C42.9094 6.38796 40.9248 4.40179 38.5112 4.40179ZM38.5112 11.0045C37.3043 11.0045 36.3121 10.0114 36.3121 8.80358C36.3121 7.59577 37.3043 6.60268 38.5112 6.60268C39.718 6.60268 40.7103 7.59577 40.7103 8.80358C40.7103 10.0114 39.718 11.0045 38.5112 11.0045Z" fill="#7DCEF1"/>
<path d="M12.0951 18.7076C9.65461 18.7076 7.69687 20.6938 7.69687 23.1094C7.69687 25.525 9.68143 27.5112 12.0951 27.5112C14.5087 27.5112 16.4933 25.525 16.4933 23.1094C16.4933 20.6938 14.5356 18.7076 12.0951 18.7076ZM12.0951 25.3103C10.8883 25.3103 9.89598 24.3172 9.89598 23.1094C9.89598 21.9016 10.8883 20.9085 12.0951 20.9085C13.3019 20.9085 14.2942 21.9016 14.2942 23.1094C14.2942 24.344 13.3019 25.3103 12.0951 25.3103Z" fill="#7DCEF1"/>
<path d="M26.3893 46.2456C23.9756 46.2456 21.9911 48.2318 21.9911 50.6474C21.9911 53.0899 23.9756 55.0492 26.3893 55.0492C28.8029 55.0492 30.7875 53.063 30.7875 50.6474C30.7875 48.205 28.8297 46.2456 26.3893 46.2456ZM26.3893 52.8483C25.1824 52.8483 24.1902 51.8552 24.1902 50.6474C24.1902 49.4396 25.1824 48.4465 26.3893 48.4465C27.5961 48.4465 28.5884 49.4396 28.5884 50.6474C28.5884 51.8552 27.6229 52.8483 26.3893 52.8483Z" fill="#7DCEF1"/>
</svg>
